<svg xmlns="http://www.w3.org/2000/svg" width="512" height="512" viewBox="0 0 512 512">
  <defs>
    <radialGradient id="g" cx="35%" cy="30%" r="80%">
      <stop offset="0%" stop-color="#7C3AED"/>
      <stop offset="45%" stop-color="#2563EB"/>
      <stop offset="100%" stop-color="#0B1220"/>
    </radialGradient>
    <linearGradient id="b" x1="0" y1="0" x2="1" y2="1">
      <stop offset="0%" stop-color="#22D3EE"/>
      <stop offset="100%" stop-color="#A78BFA"/>
    </linearGradient>
  </defs>

  <rect width="512" height="512" rx="112" fill="url(#g)"/>
  <circle cx="172" cy="170" r="10" fill="#CFFAFE" opacity="0.9"/>
  <circle cx="338" cy="210" r="7" fill="#EDE9FE" opacity="0.9"/>
  <circle cx="262" cy="330" r="6" fill="#E0F2FE" opacity="0.9"/>

  <!-- "Neural" mark -->
  <g fill="none" stroke="url(#b)" stroke-width="10" stroke-linecap="round" opacity="0.95">
    <path d="M140 290 C 185 215, 245 210, 300 255 C 335 284, 365 305, 402 282"/>
    <path d="M122 230 C 165 190, 220 175, 268 200 C 320 226, 360 252, 392 240"/>
    <path d="M150 352 C 205 330, 245 318, 292 332 C 338 346, 370 360, 402 342"/>
  </g>

  <g fill="#FFFFFF" opacity="0.95">
    <circle cx="140" cy="290" r="12"/>
    <circle cx="300" cy="255" r="12"/>
    <circle cx="402" cy="282" r="12"/>
    <circle cx="122" cy="230" r="10"/>
    <circle cx="268" cy="200" r="10"/>
    <circle cx="392" cy="240" r="10"/>
    <circle cx="150" cy="352" r="10"/>
    <circle cx="292" cy="332" r="10"/>
    <circle cx="402" cy="342" r="10"/>
  </g>

  <!-- OI badge -->
  <g>
    <rect x="112" y="84" width="288" height="92" rx="28" fill="#0B1220" opacity="0.55"/>
    <text x="256" y="145" text-anchor="middle" font-family="ui-sans-serif, system-ui, Segoe UI, Roboto, Arial" font-weight="800" font-size="56" fill="#FFFFFF">OI</text>
  </g>
</svg>
